<?xml version="1.0" encoding="UTF-8"?><!DOCTYPE svg PUBLIC "-//W3C//DTD SVG 1.1//EN" "http://www.w3.org/Graphics/SVG/1.1/DTD/svg11.dtd"><svg xmlns="http://www.w3.org/2000/svg" xmlns:xlink="http://www.w3.org/1999/xlink"><symbol id="cancel" viewBox="0 0 212.982 212.982">
  <path d="M131.804 106.491l75.936-75.936c6.99-6.99 6.99-18.323 0-25.312-6.99-6.99-18.322-6.99-25.312 0L106.491 81.18 30.554 5.242c-6.99-6.99-18.322-6.99-25.312 0-6.989 6.99-6.989 18.323 0 25.312l75.937 75.936-75.937 75.937c-6.989 6.99-6.989 18.323 0 25.312 6.99 6.99 18.322 6.99 25.312 0l75.937-75.937 75.937 75.937c6.989 6.99 18.322 6.99 25.312 0 6.99-6.99 6.99-18.322 0-25.312l-75.936-75.936z" data-original="#000000" class="active-path" data-old_color="fill-rule: evenodd clip-rule: evenodd;#292929" fill="#292929" fill-rule="evenodd" clip-rule="evenodd"/>
</symbol><symbol id="credit-card" viewBox="0 47 336 240">
  <path d="M290.821 291.621H44.988C20.18 291.621 0 271.428 0 246.633V89.169c0-24.808 20.18-44.988 44.988-44.988h245.826c24.795 0 44.988 20.18 44.988 44.988v157.464c.007 24.801-20.18 44.988-44.981 44.988zM44.988 57.035c-17.725 0-32.134 14.409-32.134 32.134v157.464c0 17.719 14.409 32.134 32.134 32.134h245.826c17.719 0 32.134-14.415 32.134-32.134V89.169c0-17.725-14.415-32.134-32.134-32.134H44.988zm186.757 24.936c16.035 0 29.036 12.995 29.036 29.036s-12.995 29.043-29.036 29.043-29.036-13.001-29.036-29.043 13.001-29.036 29.036-29.036zm40.483 0c16.035 0 29.043 12.995 29.043 29.036s-13.001 29.043-29.043 29.043c-16.041 0-29.036-13.001-29.036-29.043s13.001-29.036 29.036-29.036zM34.544 216.645h53.529v19.281H34.544v-19.281zm71.062 0h53.536v19.281h-53.536v-19.281zm71.048 0h53.548v19.281h-53.548v-19.281zm71.062 0h53.548v19.281h-53.548v-19.281zM34.544 81.977h101.191v19.281H34.544V81.977zm0 38.259h53.542v19.281H34.544v-19.281z" data-original="#000000" class="active-path" data-old_color="#000000" fill="#292929"/>
</symbol><symbol id="mail" viewBox="0 75.7495 437.979 285.48">
  <path d="M430.479 78.746H7.5a7.5 7.5 0 00-7.5 7.5v265.487a7.5 7.5 0 007.5 7.5h422.979a7.5 7.5 0 007.5-7.5V86.246a7.5 7.5 0 00-7.5-7.5zm-73.773 162.177c1.173 5.316 2.386 10.813.809 13.54-1.694 2.927-7.169 4.629-12.463 6.275-4.177 1.298-8.495 2.641-12.344 4.868-3.719 2.152-6.936 5.167-10.046 8.083-4.282 4.015-8.326 7.806-11.982 7.806-3.657 0-7.701-3.792-11.982-7.806-3.11-2.916-6.327-5.932-10.046-8.083-3.849-2.227-8.167-3.569-12.344-4.868-5.294-1.646-10.769-3.348-12.462-6.275-1.578-2.727-.365-8.224.808-13.541.963-4.364 1.958-8.876 1.958-13.495s-.995-9.132-1.958-13.496c-1.173-5.316-2.386-10.813-.808-13.541 1.693-2.927 7.168-4.629 12.462-6.275 4.177-1.298 8.495-2.641 12.344-4.868 3.719-2.152 6.936-5.167 10.046-8.083 4.281-4.014 8.325-7.806 11.982-7.806 3.656 0 7.701 3.792 11.982 7.806 3.11 2.916 6.327 5.931 10.046 8.083 3.849 2.226 8.167 3.569 12.344 4.867 5.294 1.646 10.769 3.348 12.462 6.275 1.578 2.727.365 8.224-.808 13.54-.963 4.364-1.958 8.876-1.958 13.496s.995 9.134 1.958 13.498zm-21.679-68.745c-.69-.63-1.391-1.286-2.105-1.955-5.638-5.286-12.653-11.864-22.242-11.864s-16.605 6.578-22.242 11.864c-2.607 2.444-5.07 4.753-7.298 6.042-2.395 1.385-5.741 2.426-9.285 3.527-7.671 2.385-16.364 5.087-20.993 13.087-4.498 7.775-2.563 16.546-.855 24.284.825 3.743 1.605 7.28 1.605 10.264s-.78 6.521-1.605 10.264c-1.481 6.711-3.126 14.197-.605 21.138l-30.416 30.783L25.452 93.746h387.067l-77.492 78.432zm-206.911 46.811L15 333.467V104.509l113.116 114.48zm10.543 10.67l74.991 75.895a7.5 7.5 0 0010.67 0l35.009-35.432c3.94 2.261 8.38 3.65 12.526 4.939 3.544 1.102 6.891 2.142 9.285 3.527 2.228 1.289 4.69 3.598 7.298 6.042 5.637 5.286 12.653 11.864 22.242 11.864 9.588 0 16.604-6.578 22.242-11.864 2.607-2.445 5.069-4.753 7.298-6.043 1.451-.84 3.255-1.552 5.238-2.228l67.063 67.872H25.45l113.209-114.572zm222.306 41.054c3.781-1.982 7.182-4.675 9.533-8.738 4.498-7.775 2.563-16.546.855-24.284-.825-3.743-1.605-7.28-1.605-10.264s.78-6.521 1.605-10.264c1.708-7.738 3.643-16.508-.856-24.284-4.629-8-13.322-10.702-20.993-13.087l-.699-.218 74.174-75.073v228.973l-62.014-62.761z" data-original="#000000" class="active-path" data-old_color="#f1cdb3" fill="#f1cdb3"/>
  <path d="M310.68 189.242c-21.056 0-38.186 17.13-38.186 38.185s17.13 38.185 38.186 38.185 38.186-17.13 38.186-38.185-17.131-38.185-38.186-38.185zm0 61.37c-12.784 0-23.186-10.401-23.186-23.185s10.401-23.185 23.186-23.185 23.186 10.401 23.186 23.185-10.402 23.185-23.186 23.185z" data-original="#000000" class="active-path" data-old_color="#f1cdb3" fill="#f1cdb3"/>
</symbol><symbol id="pin" viewBox="85 0 342 512">
  <path d="M256 0C161.896 0 85.333 76.563 85.333 170.667c0 28.25 7.063 56.26 20.49 81.104L246.667 506.5c1.875 3.396 5.448 5.5 9.333 5.5s7.458-2.104 9.333-5.5l140.896-254.813c13.375-24.76 20.438-52.771 20.438-81.021C426.667 76.563 350.104 0 256 0zm131.51 241.448L256 479.292l-131.458-237.75c-11.698-21.646-17.875-46.156-17.875-70.875 0-82.344 66.99-149.333 149.333-149.333s149.333 66.99 149.333 149.333c0 24.718-6.177 49.229-17.823 70.781z" data-original="#000000" class="active-path" data-old_color="#f1cdb3" fill="#f1cdb3"/>
  <path d="M256 85.333c-47.052 0-85.333 38.281-85.333 85.333C170.667 217.719 208.948 256 256 256s85.333-38.281 85.333-85.333S303.052 85.333 256 85.333zm0 149.334c-35.292 0-64-28.708-64-64s28.708-64 64-64 64 28.708 64 64c0 35.291-28.708 64-64 64z" data-original="#000000" class="active-path" data-old_color="#f1cdb3" fill="#f1cdb3"/>
</symbol><symbol id="telephone" viewBox="1 45 425 340">
  <path d="M427.345 139.789l-26.06-62.542a7.498 7.498 0 00-5.041-4.375l-31.323-8.121c-91.706-23.776-210.218-23.775-301.92 0l-31.324 8.121a7.498 7.498 0 00-5.041 4.375L.577 139.789a7.5 7.5 0 00-.141 5.407l10.423 29.186a7.498 7.498 0 008.534 4.832l99.025-19.805a7.502 7.502 0 005.925-6.105l8.575-50.781c47.199-11.86 114.886-11.86 162.083 0l8.576 50.782a7.5 7.5 0 005.925 6.105l99.024 19.805a7.504 7.504 0 008.535-4.832l10.424-29.186a7.508 7.508 0 00-.14-5.408zM22.807 163.235l-5.35-14.981 95.913-20.047-2.956 17.507-87.607 17.521zm101.527-73.962a7.497 7.497 0 00-5.4 5.981l-2.882 17.068-96.155 20.098 19.152-45.963 27.716-7.186c89.417-23.182 204.972-23.183 294.393 0l27.716 7.186 19.152 45.963-96.155-20.098-2.882-17.068a7.5 7.5 0 00-5.4-5.981c-51.098-14.101-128.159-14.101-179.255 0zm280.78 73.962l-87.605-17.521-2.957-17.507 95.913 20.047-5.351 14.981z" data-original="#000000" class="active-path" data-old_color="#f1cdb3" fill="#f1cdb3"/>
  <path d="M356.139 183.878a7.501 7.501 0 00-5.755-5.709l-51.079-10.918-6.431-41.886a7.5 7.5 0 00-7.413-6.362h-20v-9.82c0-4.142-3.357-7.5-7.5-7.5s-7.5 3.358-7.5 7.5v9.82h-73v-9.82c0-4.142-3.357-7.5-7.5-7.5s-7.5 3.358-7.5 7.5v9.82h-20a7.5 7.5 0 00-7.413 6.362l-6.432 41.886-51.078 10.918a7.501 7.501 0 00-5.755 5.709L37.1 340.159a7.533 7.533 0 00-.178 1.625v31.719a7.5 7.5 0 007.5 7.5H383.5a7.5 7.5 0 007.5-7.5v-31.719c0-.546-.06-1.091-.178-1.625l-34.683-156.281zM85.384 191.83l51.428-10.993a7.5 7.5 0 005.846-6.196l6.24-40.638h130.127l6.239 40.638a7.5 7.5 0 005.846 6.196l51.429 10.993 31.615 142.454H53.769L85.384 191.83zM126.2 349.284l-9.661 16.719h-11.401l9.661-16.719H126.2zm17.325 0h163.21l-9.661 16.719h-163.21l9.661-16.719zm-91.603 0h45.552l-9.661 16.719H51.922v-16.719zm262.477 16.719l9.661-16.719H376v16.719h-61.601z" data-original="#000000" class="active-path" data-old_color="#f1cdb3" fill="#f1cdb3"/>
  <path d="M213.961 320.038c44.388 0 80.5-36.112 80.5-80.5s-36.112-80.5-80.5-80.5-80.5 36.112-80.5 80.5 36.112 80.5 80.5 80.5zm0-146c36.117 0 65.5 29.383 65.5 65.5s-29.383 65.5-65.5 65.5-65.5-29.383-65.5-65.5 29.383-65.5 65.5-65.5z" data-original="#000000" class="active-path" data-old_color="#f1cdb3" fill="#f1cdb3"/>
  <path d="M213.961 268.091c15.744 0 28.554-12.809 28.554-28.554s-12.81-28.554-28.554-28.554c-15.745 0-28.555 12.809-28.555 28.554s12.81 28.554 28.555 28.554zm0-42.108c7.474 0 13.554 6.08 13.554 13.554s-6.08 13.554-13.554 13.554-13.555-6.08-13.555-13.554c0-7.473 6.081-13.554 13.555-13.554z" data-original="#000000" class="active-path" data-old_color="#f1cdb3" fill="#f1cdb3"/>
</symbol></svg>